<svg width="34" height="34" viewBox="0 0 34 34" fill="none" xmlns="http://www.w3.org/2000/svg">
<g clip-path="url(#clip0_3_420)">
<path d="M17.9971 16.0027L18.0042 9.9287C18.0042 9.6624 17.8984 9.40701 17.7101 9.2187C17.5218 9.0304 17.2664 8.92461 17.0001 8.92461C16.7338 8.92461 16.4784 9.0304 16.2901 9.2187C16.1018 9.40701 15.996 9.6624 15.996 9.9287L16.0031 16.0027L9.92902 15.9957C9.66272 15.9957 9.40732 16.1015 9.21902 16.2898C9.03072 16.4781 8.92493 16.7335 8.92493 16.9998C8.92493 17.2661 9.03072 17.5215 9.21902 17.7098C9.40732 17.8981 9.66272 18.0039 9.92902 18.0039L16.0031 17.9968L15.996 24.0708C15.9955 24.2028 16.0211 24.3337 16.0713 24.4557C16.1216 24.5778 16.1955 24.6887 16.2889 24.782C16.3822 24.8754 16.4931 24.9493 16.6152 24.9996C16.7373 25.0499 16.8681 25.0755 17.0001 25.0749C17.1321 25.0755 17.2629 25.0499 17.385 24.9996C17.507 24.9493 17.6179 24.8754 17.7113 24.782C17.8046 24.6887 17.8786 24.5778 17.9288 24.4557C17.9791 24.3337 18.0047 24.2028 18.0042 24.0708L17.9971 17.9968L24.0712 18.0039C24.2032 18.0044 24.334 17.9788 24.456 17.9285C24.5781 17.8783 24.689 17.8043 24.7824 17.711C24.8757 17.6176 24.9496 17.5067 24.9999 17.3847C25.0502 17.2626 25.0758 17.1318 25.0752 16.9998C25.0758 16.8678 25.0502 16.7369 24.9999 16.6149C24.9496 16.4928 24.8757 16.3819 24.7824 16.2886C24.689 16.1952 24.5781 16.1213 24.456 16.071C24.334 16.0207 24.2032 15.9951 24.0712 15.9957L17.9971 16.0027Z" fill="black"/>
</g>
<defs>
<clipPath id="clip0_3_420">
<rect width="24" height="24" fill="white" transform="translate(0.029541 17) rotate(-45)"/>
</clipPath>
</defs>
</svg>
